<svg xmlns="http://www.w3.org/2000/svg" xmlns:xlink="http://www.w3.org/1999/xlink" width="200" zoomAndPan="magnify" viewBox="0 0 150 149.999998" height="200" preserveAspectRatio="xMidYMid meet" version="1.0"><rect x="-15" width="180" fill="#ffffff" y="-15" height="179.999997" fill-opacity="1"/><rect x="-15" width="180" fill="#ffffff" y="-15" height="179.999997" fill-opacity="1"/><rect x="-15" width="180" fill="#ffffff" y="-15" height="179.999997" fill-opacity="1"/><path fill="#6528f7" d="M 14.480469 129.230469 C 15.082031 125.695312 18.148438 122.671875 21.820312 122 C 25.488281 121.328125 29.507812 123.046875 31.429688 126.117188 C 31.179688 121.097656 32.15625 115.855469 35.214844 111.769531 C 38.273438 107.6875 43.683594 105.011719 48.832031 105.976562 C 53.980469 106.945312 58.148438 112.140625 56.914062 117.027344 C 54.410156 110.191406 58.164062 102.34375 64.125 97.882812 C 70.085938 93.425781 77.78125 91.726562 85.28125 90.785156 C 89.773438 90.21875 94.359375 89.886719 98.8125 90.683594 C 103.265625 91.480469 107.617188 93.519531 110.367188 96.96875 C 113.113281 100.421875 113.96875 105.398438 111.789062 109.203125 C 114.175781 107.417969 117.128906 106.214844 120.15625 106.273438 C 123.183594 106.328125 126.25 107.78125 127.765625 110.292969 C 129.28125 112.804688 128.925781 116.339844 126.652344 118.253906 C 130.070312 116.414062 134.527344 116.496094 137.871094 118.457031 C 141.21875 120.421875 142.988281 124.171875 142.832031 127.925781 C 142.832031 127.925781 14.480469 129.230469 14.480469 129.230469 Z M 14.480469 129.230469 " fill-opacity="1" fill-rule="nonzero"/><path stroke-linecap="round" transform="matrix(0.138889, 0, 0, 0.138889, 42.911944, 55.007636)" fill-opacity="1" fill="#6528f7" fill-rule="nonzero" stroke-linejoin="round" d="M -0.0128685 -259.170624 C 143.143391 -259.170624 259.187148 -143.126866 259.187148 0.00126798 C 259.187148 143.129402 143.143391 259.17316 -0.0128685 259.17316 C -143.141003 259.17316 -259.18476 143.129402 -259.18476 0.00126798 C -259.18476 -143.126866 -143.141003 -259.170624 -0.0128685 -259.170624 Z M -0.0128685 -259.170624 " stroke="#000000" stroke-width="3" stroke-opacity="1" stroke-miterlimit="4"/><path stroke-linecap="round" transform="matrix(0.138889, 0, 0, 0.138889, 42.911944, 55.007636)" fill-opacity="1" fill="#f4f4f4" fill-rule="nonzero" stroke-linejoin="round" d="M -0.0128685 -241.311248 C 133.271515 -241.311248 241.299647 -133.254991 241.299647 0.00126798 C 241.299647 133.257527 133.271515 241.313784 -0.0128685 241.313784 C -133.269127 241.313784 -241.297259 133.257527 -241.297259 0.00126798 C -241.297259 -133.254991 -133.269127 -241.311248 -0.0128685 -241.311248 Z M -0.0128685 -241.311248 " stroke="#000000" stroke-width="3" stroke-opacity="1" stroke-miterlimit="4"/><path stroke-linecap="round" transform="matrix(0.138889, 0, 0, 0.138889, 0.00000125, 0.000002)" fill="none" stroke-linejoin="round" d="M 100.406247 396.056261 C 100.406247 396.056261 122.624999 396.056261 122.624999 396.056261 " stroke="#000000" stroke-width="3" stroke-opacity="1" stroke-miterlimit="4"/><path stroke-linecap="round" transform="matrix(0.138889, 0, 0, 0.138889, 0.00000125, 0.000002)" fill="none" stroke-linejoin="round" d="M 495.309398 396.056261 C 495.309398 396.056261 517.52815 396.056261 517.52815 396.056261 " stroke="#000000" stroke-width="3" stroke-opacity="1" stroke-miterlimit="4"/><path stroke-linecap="round" transform="matrix(0.138889, 0, 0, 0.138889, 0.00000125, 0.000002)" fill="none" stroke-linejoin="round" d="M 303.159386 608.8219 C 303.159386 608.8219 303.159386 586.603149 303.159386 586.603149 " stroke="#000000" stroke-width="3" stroke-opacity="1" stroke-miterlimit="4"/><path stroke-linecap="round" transform="matrix(0.138889, 0, 0, 0.138889, 0.00000125, 0.000002)" fill="none" stroke-linejoin="round" d="M 303.159386 205.509374 C 303.159386 205.509374 303.159386 183.290622 303.159386 183.290622 " stroke="#000000" stroke-width="3" stroke-opacity="1" stroke-miterlimit="4"/><path stroke-linecap="round" transform="matrix(0.138858, 0.00294785, -0.00294785, 0.138858, 31.803145, 50.308156)" fill-opacity="1" fill="#f4f4f4" fill-rule="nonzero" stroke-linejoin="round" d="M 86.144119 34.210617 C 86.144119 34.210617 85.608608 35.487896 85.608608 35.487896 C 84.299441 38.750793 80.5907 40.292356 77.327803 38.98319 C 77.327803 38.98319 -82.626485 -25.92398 -82.626485 -25.92398 C -85.889382 -27.233146 -87.459064 -30.941291 -86.121779 -34.204785 C -86.121779 -34.204785 -85.614387 -35.481466 -85.614387 -35.481466 C -84.277102 -38.74496 -80.568957 -40.314642 -77.333582 -38.97676 C -77.333582 -38.97676 82.620706 25.930409 82.620706 25.930409 C 85.883603 27.239576 87.453285 30.947721 86.144119 34.210617 Z M 86.144119 34.210617 " stroke="#000000" stroke-width="3" stroke-opacity="1" stroke-miterlimit="4"/><path stroke-linecap="round" transform="matrix(0.138889, 0, 0, 0.138889, 42.911944, 46.219027)" fill-opacity="1" fill="#f4f4f4" fill-rule="nonzero" stroke-linejoin="round" d="M 0.690257 70.338639 C 0.690257 70.338639 -0.687869 70.338639 -0.687869 70.338639 C -4.203494 70.338639 -7.044119 67.469889 -7.044119 63.982388 C -7.044119 63.982388 -7.044119 -63.958245 -7.044119 -63.958245 C -7.044119 -67.47387 -4.203494 -70.314495 -0.687869 -70.314495 C -0.687869 -70.314495 0.690257 -70.314495 0.690257 -70.314495 C 4.205882 -70.314495 7.046507 -67.47387 7.046507 -63.958245 C 7.046507 -63.958245 7.046507 63.982388 7.046507 63.982388 C 7.046507 67.469889 4.205882 70.338639 0.690257 70.338639 Z M 0.690257 70.338639 " stroke="#000000" stroke-width="3" stroke-opacity="1" stroke-miterlimit="4"/><path stroke-linecap="round" transform="matrix(0.138889, 0, 0, 0.138889, 42.911944, 55.007636)" fill-opacity="1" fill="#6528f7" fill-rule="nonzero" stroke-linejoin="round" d="M -0.0128685 -15.495608 C 8.565257 -15.495608 15.484007 -8.548733 15.484007 0.00126798 C 15.484007 8.551269 8.565257 15.498144 -0.0128685 15.498144 C -8.562869 15.498144 -15.48162 8.551269 -15.48162 0.00126798 C -15.48162 -8.548733 -8.562869 -15.495608 -0.0128685 -15.495608 Z M -0.0128685 -15.495608 " stroke="#000000" stroke-width="3" stroke-opacity="1" stroke-miterlimit="4"/><path stroke-linecap="round" transform="matrix(0.138889, 0, 0, 0.138889, 67.90222, 122.213748)" fill-opacity="1" fill="#f4f4f4" fill-rule="nonzero" stroke-linejoin="round" d="M -21.852239 56.06102 C -21.852239 56.06102 -6.664738 59.801646 -6.664738 59.801646 C 1.772763 61.882896 10.294638 56.707895 12.375888 48.29852 C 12.375888 48.29852 33.35714 -37.032736 33.35714 -37.032736 C 35.43839 -45.470236 30.291514 -53.992112 21.854014 -56.045237 C 21.854014 -56.045237 6.638388 -59.785862 6.638388 -59.785862 C -1.770988 -61.867112 -10.292863 -56.720237 -12.374113 -48.282736 C -12.374113 -48.282736 -33.355365 37.048519 -33.355365 37.048519 C -35.436615 45.457895 -30.289739 53.97977 -21.852239 56.06102 Z M -21.852239 56.06102 " stroke="#000000" stroke-width="3" stroke-opacity="1" stroke-miterlimit="4"/><path stroke-linecap="round" transform="matrix(0.138889, 0, 0, 0.138889, 106.969997, 122.879438)" fill-opacity="1" fill="#f4f4f4" fill-rule="nonzero" stroke-linejoin="round" d="M 34.275402 49.439924 C 34.275402 49.439924 20.353526 56.6118 20.353526 56.6118 C 12.647275 60.60555 3.16915 57.56805 -0.824601 49.833674 C -0.824601 49.833674 -41.043353 -28.269456 -41.043353 -28.269456 C -45.037104 -36.003831 -41.999603 -45.481957 -34.265228 -49.447582 C -34.265228 -49.447582 -20.343352 -56.619457 -20.343352 -56.619457 C -12.637101 -60.585083 -3.158976 -57.547583 0.806649 -49.841332 C 0.806649 -49.841332 41.053527 28.289923 41.053527 28.289923 C 45.019152 35.996173 41.981652 45.474299 34.275402 49.439924 Z M 34.275402 49.439924 " stroke="#000000" stroke-width="3" stroke-opacity="1" stroke-miterlimit="4"/><path stroke-linecap="round" transform="matrix(0.138889, 0, 0, 0.138889, 91.003743, 73.416106)" fill-opacity="1" fill="#f4f4f4" fill-rule="nonzero" stroke-linejoin="round" d="M 93.179305 -226.674101 C 130.754308 -231.427226 166.163685 -202.767849 181.632436 -168.174097 C 197.073062 -133.580345 197.016812 -94.317842 196.341812 -56.433465 C 194.851187 27.013416 190.463687 114.622796 147.151184 185.975926 C 142.313684 193.907176 136.998058 201.669677 130.248058 208.082177 C 123.554307 214.438428 115.623057 219.388428 107.354306 223.550928 C 75.798054 239.469679 39.573052 244.36343 4.24805 242.760305 C -31.048828 241.157179 -65.75508 233.366554 -100.095707 224.985303 C -121.386333 219.810303 -144.786335 212.863428 -156.092586 194.104051 C -164.389461 180.350926 -164.192586 163.335299 -164.614461 147.304048 C -167.005086 56.713418 -197.070713 -31.767838 -196.255088 -122.414719 C -195.945713 -154.449096 -190.180088 -189.549098 -165.908211 -210.4741 C -126.561334 -244.364727 -73.883205 -222.427226 -32.483203 -206.1991 C 13.782425 -188.030348 48.488678 -221.020975 93.179305 -226.674101 Z M 93.179305 -226.674101 " stroke="#000000" stroke-width="3" stroke-opacity="1" stroke-miterlimit="4"/><path stroke-linecap="round" transform="matrix(0.138889, 0, 0, 0.138889, 102.602076, 63.997916)" fill="none" stroke-linejoin="round" d="M 23.283804 -22.878746 C 6.015053 -9.547495 -9.650573 5.836881 -23.263074 22.880632 " stroke="#000000" stroke-width="3" stroke-opacity="1" stroke-miterlimit="4"/><path stroke-linecap="round" transform="matrix(0.138889, 0, 0, 0.138889, 102.726521, 63.969718)" fill="none" stroke-linejoin="round" d="M -19.940326 -30.410099 C -19.940326 -30.410099 19.012801 26.20553 19.012801 26.20553 C 19.940926 27.55553 19.744051 30.42428 18.253426 29.721155 " stroke="#000000" stroke-width="3" stroke-opacity="1" stroke-miterlimit="4"/><path stroke-linecap="round" transform="matrix(0.138889, 0, 0, 0.138889, 78.807498, 63.714997)" fill="none" stroke-linejoin="round" d="M 25.770389 -26.269853 C 4.451638 -13.557352 -13.463988 4.723899 -25.754614 26.267651 " stroke="#000000" stroke-width="3" stroke-opacity="1" stroke-miterlimit="4"/><path stroke-linecap="round" transform="matrix(0.138889, 0, 0, 0.138889, 78.806802, 63.710828)" fill="none" stroke-linejoin="round" d="M -25.299603 -28.855463 C -4.121476 -13.555462 18.40665 3.657039 25.297275 28.857041 " stroke="#000000" stroke-width="3" stroke-opacity="1" stroke-miterlimit="4"/><path stroke-linecap="round" transform="matrix(0.138889, 0, 0, 0.138889, 79.179438, 83.21722)" fill="none" stroke-linejoin="round" d="M 24.751796 -23.388988 C 7.00492 -8.988987 -13.104456 3.751639 -24.748207 23.38289 " stroke="#000000" stroke-width="3" stroke-opacity="1" stroke-miterlimit="4"/><path stroke-linecap="round" transform="matrix(0.138889, 0, 0, 0.138889, 78.797641, 83.450834)" fill="none" stroke-linejoin="round" d="M -27.258645 -28.811631 C -2.761769 -17.33663 17.150733 3.700871 27.275733 28.816498 " stroke="#000000" stroke-width="3" stroke-opacity="1" stroke-miterlimit="4"/><path stroke-linecap="round" transform="matrix(0.138889, 0, 0, 0.138889, 102.963746, 64.292775)" fill-opacity="1" fill="#f4f4f4" fill-rule="nonzero" stroke-linejoin="round" d="M -18.976476 2.22327 C -17.767101 12.713895 -8.26085 20.223271 2.229776 18.985771 C 12.720401 17.748271 20.229777 8.24202 18.992277 -2.248606 C 17.754777 -12.711106 8.248526 -20.220482 -2.2421 -18.982982 C -12.732725 -17.745482 -20.213976 -8.239231 -18.976476 2.22327 Z M -18.976476 2.22327 " stroke="#000000" stroke-width="3" stroke-opacity="1" stroke-miterlimit="4"/><path stroke-linecap="round" transform="matrix(0.138889, 0, 0, 0.138889, 79.276528, 62.989582)" fill-opacity="1" fill="#f4f4f4" fill-rule="nonzero" stroke-linejoin="round" d="M -16.250376 1.903132 C -15.209751 10.903133 -7.053501 17.315633 1.918375 16.246883 C 10.89025 15.206258 17.302751 7.078133 16.262126 -1.921868 C 15.193376 -10.893743 7.06525 -17.306244 -1.906625 -16.265619 C -10.906626 -15.196869 -17.319126 -7.068743 -16.250376 1.903132 Z M -16.250376 1.903132 " stroke="#000000" stroke-width="3" stroke-opacity="1" stroke-miterlimit="4"/><path stroke-linecap="round" transform="matrix(0.138889, 0, 0, 0.138889, 79.339163, 82.97208)" fill-opacity="1" fill="#f4f4f4" fill-rule="nonzero" stroke-linejoin="round" d="M -19.035725 2.254152 C -17.798225 12.772903 -8.263849 20.282278 2.254901 19.044778 C 12.773652 17.807278 20.283028 8.272903 19.045527 -2.245848 C 17.808027 -12.764599 8.273652 -20.273974 -2.245099 -19.036474 C -12.76385 -17.798974 -20.273225 -8.264598 -19.035725 2.254152 Z M -19.035725 2.254152 " stroke="#000000" stroke-width="3" stroke-opacity="1" stroke-miterlimit="4"/><path stroke-linecap="round" transform="matrix(0.138889, 0, 0, 0.138889, 100.791946, 83.329156)" fill="none" stroke-linejoin="round" d="M 24.729242 -23.379302 C 7.010491 -9.007426 -13.098885 3.7332 -24.742636 23.392576 " stroke="#000000" stroke-width="3" stroke-opacity="1" stroke-miterlimit="4"/><path stroke-linecap="round" transform="matrix(0.138889, 0, 0, 0.138889, 100.410135, 83.56277)" fill="none" stroke-linejoin="round" d="M -27.281096 -28.801945 C -2.756094 -17.326945 17.156407 3.682432 27.253283 28.798058 " stroke="#000000" stroke-width="3" stroke-opacity="1" stroke-miterlimit="4"/><path stroke-linecap="round" transform="matrix(0.138889, 0, 0, 0.138889, 100.951659, 83.08403)" fill-opacity="1" fill="#f4f4f4" fill-rule="nonzero" stroke-linejoin="round" d="M -19.058193 2.235609 C -17.820693 12.75436 -8.286317 20.291861 2.232434 19.054361 C 12.751184 17.81686 20.288685 8.282485 19.051185 -2.236266 C 17.813685 -12.755016 8.279309 -20.292517 -2.239442 -19.055017 C -12.758192 -17.817517 -20.295693 -8.283141 -19.058193 2.235609 Z M -19.058193 2.235609 " stroke="#000000" stroke-width="3" stroke-opacity="1" stroke-miterlimit="4"/><path stroke-linecap="round" transform="matrix(0.138889, 0, 0, 0.138889, 91.064439, 103.027635)" fill-opacity="1" fill="#f4f4f4" fill-rule="nonzero" stroke-linejoin="round" d="M -213.623351 81.560407 C -191.685849 113.313534 -150.454597 124.53541 -112.345219 130.38541 C -60.342091 138.316661 -7.495212 140.482286 44.957916 136.826035 C 78.229793 134.519785 113.104796 129.176035 139.289172 108.560409 C 158.807923 93.232283 171.492299 71.013531 182.882925 48.991655 C 199.364176 17.097903 216.914177 -16.511474 227.995428 -50.795852 C 238.064179 -82.042729 206.901677 -98.214605 178.382925 -99.64898 C 157.486048 -100.66148 136.279797 -92.280229 121.795421 -77.177103 C 106.43917 -61.202102 98.536045 -38.645851 87.201669 -19.717725 C 80.592293 -8.664599 72.801668 1.179152 61.664167 7.760402 C 39.754791 20.754153 12.136039 16.507278 -12.923338 11.866652 C -36.267089 7.535402 -60.032716 3.063527 -81.070217 -7.905224 C -96.707718 -16.061474 -110.854594 -28.436475 -119.038969 -43.820851 C -121.879595 -49.136477 -123.98897 -54.817727 -125.198345 -60.836477 C -128.685845 -78.161478 -124.579595 -97.202105 -132.510845 -113.036481 C -143.113971 -134.242732 -170.563973 -140.486482 -194.245224 -139.473982 C -208.251475 -138.855232 -223.748351 -135.648982 -231.707727 -124.117731 C -238.063977 -114.864606 -237.838977 -102.714605 -237.332727 -91.492729 C -236.067102 -62.130227 -234.801477 -32.767725 -233.507727 -3.405224 C -232.213977 26.069778 -230.385852 57.28853 -213.623351 81.560407 Z M -213.623351 81.560407 " stroke="#000000" stroke-width="3" stroke-opacity="1" stroke-miterlimit="4"/><path stroke-linecap="round" transform="matrix(0.138889, 0, 0, 0.138889, 87.973333, 105.720553)" fill-opacity="1" fill="#f4f4f4" fill-rule="nonzero" stroke-linejoin="round" d="M -125.133005 17.705772 C -117.39863 26.312023 -106.458004 31.262023 -95.658003 35.396398 C -40.4205 56.574525 20.357629 63.1839 78.857633 54.437025 C 96.267009 51.849524 115.138885 46.815149 125.067011 32.302648 C 138.904512 11.068272 129.032636 -22.259855 109.457635 -39.106731 C 102.84826 -28.053606 95.057634 -18.209855 83.920133 -11.628605 C 62.010757 1.365146 34.392005 -2.881729 9.332629 -7.522354 C -14.011123 -11.853605 -37.776749 -16.32548 -58.814251 -27.294231 C -74.451752 -35.450481 -88.598628 -47.825482 -96.783003 -63.209858 C -110.508004 -58.034858 -122.68613 -48.641107 -129.71738 -35.872356 C -138.914256 -19.109855 -137.873631 3.474521 -125.133005 17.705772 Z M -125.133005 17.705772 " stroke="#000000" stroke-width="3" stroke-opacity="1" stroke-miterlimit="4"/><path stroke-linecap="round" transform="matrix(0.138889, 0, 0, 0.138889, 91.292634, 60.826664)" fill-opacity="1" fill="#000000" fill-rule="nonzero" stroke-linejoin="round" d="M -0.785086 -25.695733 C -7.928837 -16.161357 -17.322587 -8.005107 -21.963213 2.991769 C -26.294463 13.34177 -25.760088 25.66052 -20.500713 35.588646 C -15.241337 45.516772 -5.397587 52.885522 5.627414 55.135522 C -2.472587 48.779272 -7.788212 39.048021 -8.800712 28.810521 C -9.813212 18.57302 -6.466337 7.969894 0.227414 0.151144 C 4.952414 -5.361357 11.224289 -9.495732 15.527415 -15.345732 C 20.927415 -22.714483 26.29929 -46.423859 14.852415 -52.04886 C 8.580539 -55.14261 3.293039 -31.151983 -0.785086 -25.695733 Z M -0.785086 -25.695733 " stroke="#000000" stroke-width="3" stroke-opacity="1" stroke-miterlimit="4"/><path stroke-linecap="round" transform="matrix(0.138889, 0, 0, 0.138889, 101.421103, 59.901107)" fill-opacity="1" fill="#000000" fill-rule="nonzero" stroke-linejoin="round" d="M 29.030558 -103.069224 C 41.068059 -90.947348 46.580559 -74.550472 43.993059 -58.519221 C 42.249309 -47.66297 36.933683 -36.722344 39.043059 -26.091094 C 41.939934 -11.578593 57.577435 -1.819217 65.59306 11.090159 C 75.436811 26.95266 72.961811 47.090161 63.17431 63.880787 C 53.386809 80.699538 37.074308 94.593289 19.524307 106.63079 C 10.946182 112.48079 1.805556 118.105791 -8.600695 121.143291 C -19.006945 124.180791 -30.988196 124.321416 -39.931947 119.680791 C -50.422572 114.196416 -54.641323 103.508915 -57.622573 93.468289 C -75.425699 33.08391 -72.303824 -32.250469 -48.650697 -93.225473 C -43.700697 -105.994224 -36.078821 -124.331725 -16.700695 -123.656725 C 0.624306 -123.037975 18.624307 -113.475474 29.030558 -103.069224 Z M 29.030558 -103.069224 " stroke="#000000" stroke-width="3" stroke-opacity="1" stroke-miterlimit="4"/><path stroke-linecap="round" transform="matrix(0.138889, 0, 0, 0.138889, 86.264718, 81.800966)" fill-opacity="1" fill="#f7f3eb" fill-rule="nonzero" stroke-linejoin="round" d="M 16.740908 -107.213837 C -1.905968 -81.788836 -14.196594 -52.145084 -22.296595 -21.685707 C -30.42472 8.77367 -34.502846 40.161172 -37.821596 71.520549 C -39.396596 86.454925 -40.718471 102.148676 -34.755971 115.929927 C -33.40597 119.023677 -31.184095 122.342428 -27.83722 122.651803 C -23.759095 123.073678 -20.80597 118.995552 -18.865345 115.395552 C -0.668468 81.617425 9.709657 44.267422 19.919033 7.283045 C 27.512783 -20.110707 35.106534 -47.616958 38.622159 -75.79821 C 40.000284 -86.626336 40.703409 -98.101337 37.525284 -108.676337 C 33.194034 -123.076338 23.406533 -116.270088 16.740908 -107.213837 Z M 16.740908 -107.213837 " stroke="#000000" stroke-width="3" stroke-opacity="1" stroke-miterlimit="4"/><path stroke-linecap="round" transform="matrix(0.138889, 0, 0, 0.138889, 93.255553, 92.985971)" fill-opacity="1" fill="#f7f3eb" fill-rule="nonzero" stroke-linejoin="round" d="M 72.241276 62.482263 C 69.653776 67.826013 64.535025 70.526014 59.72565 72.522889 C 39.560024 80.847889 18.128772 82.957264 -2.571229 80.454139 C -23.27123 77.922889 -43.268107 70.863514 -62.168108 61.272888 C -68.018108 58.319763 -74.571234 53.735387 -74.796234 45.916637 C -74.880609 42.626012 -73.755609 39.391637 -72.658733 36.297886 C -63.714983 10.929135 -54.771232 -14.411492 -45.827482 -39.780244 C -41.214981 -52.830244 -36.068106 -66.69587 -26.25248 -74.683371 C -17.111855 -82.136496 -5.636854 -82.952121 5.022522 -82.023996 C 25.525648 -80.223996 47.153774 -72.939621 63.972525 -59.32712 C 69.878776 -54.573995 70.103776 -49.005244 69.906901 -40.736494 C 69.766276 -35.786493 69.710026 -30.836493 69.681901 -25.886493 C 69.653776 -17.477117 69.766276 -9.067742 70.075651 -0.686491 C 70.525651 11.154135 71.313151 22.93851 72.466276 34.666636 C 72.775651 37.929136 73.113151 41.191637 73.506901 44.454137 C 74.181901 50.472887 74.885026 57.054138 72.241276 62.482263 Z M 72.241276 62.482263 " stroke="#000000" stroke-width="3" stroke-opacity="1" stroke-miterlimit="4"/><path stroke-linecap="round" transform="matrix(0.138889, 0, 0, 0.138889, 100.720829, 93.335269)" fill-opacity="1" fill="#f4f4f4" fill-rule="nonzero" stroke-linejoin="round" d="M 18.716283 32.151688 C 18.294408 32.320438 17.816283 32.461063 17.338158 32.573563 C 13.344407 33.389188 9.463157 30.407938 7.522532 26.836062 C 5.610032 23.236062 5.131907 19.101687 4.063157 15.192312 C 3.022532 11.254811 1.138156 7.204811 -2.433719 5.292311 C -5.471219 3.689186 -9.127469 3.914186 -12.361844 2.873561 C -15.624345 1.804811 -18.718095 -1.738939 -17.143095 -4.77644 C -15.680595 -7.58894 -11.602469 -7.504565 -8.649344 -6.435815 C -5.696219 -5.33894 -2.574344 -3.65144 0.435031 -4.60769 C 8.591282 -7.13894 4.710032 -33.379567 15.931907 -28.401441 C 15.903782 -19.992066 16.016282 -11.58269 16.325657 -3.20144 C 16.775657 8.639186 17.563158 20.423562 18.716283 32.151688 Z M 18.716283 32.151688 " stroke="#000000" stroke-width="3" stroke-opacity="1" stroke-miterlimit="4"/><path stroke-linecap="round" transform="matrix(0.138889, 0, 0, 0.138889, 96.55375, 77.826941)" fill-opacity="1" fill="#6528f7" fill-rule="nonzero" stroke-linejoin="round" d="M -17.487001 -89.963354 C 10.834876 -90.160229 39.663002 -84.478978 63.653629 -73.988353 C 70.234879 -71.119602 76.81613 -67.575852 78.925505 -62.738352 C 81.963005 -55.819601 74.90363 -49.350851 69.447379 -43.388351 C 55.075503 -27.75085 49.984878 -8.991473 50.013003 9.542903 C 50.069253 28.105404 54.991128 46.667905 59.491129 65.146031 C 60.222379 68.155407 60.869254 71.474157 58.253629 73.892907 C 55.919253 76.030407 51.644253 76.902282 47.650503 77.633532 C 4.9005 85.424158 -39.312003 92.286658 -81.949505 80.052282 C -64.287004 66.664782 -56.468254 41.57728 -63.415129 20.511654 C -65.383879 14.577278 -68.36513 9.036653 -70.55888 3.186652 C -72.780755 -2.663348 -74.21513 -9.047723 -72.893255 -15.150849 C -69.65888 -30.2821 -51.040128 -39.0571 -49.577628 -54.469601 C -49.015128 -60.347727 -51.180753 -66.113352 -52.305754 -71.907102 C -53.233879 -76.519603 -53.627629 -82.622728 -50.730753 -86.644603 C -47.946378 -90.525854 -41.083878 -90.525854 -36.612002 -91.032104 C -25.474502 -92.297729 -13.999501 -91.566479 -3.115125 -88.753978 " stroke="#000000" stroke-width="3" stroke-opacity="1" stroke-miterlimit="4"/><path stroke-linecap="round" transform="matrix(0.138889, 0, 0, 0.138889, 97.251389, 63.634582)" fill-opacity="1" fill="#f7f3eb" fill-rule="nonzero" stroke-linejoin="round" d="M 25.58375 -12.584618 C 25.274375 -10.475243 24.936875 -8.393993 24.599375 -6.284618 C 23.755624 -0.940868 22.939999 4.402883 22.124374 9.746633 C 21.646249 12.699758 21.168124 15.737259 19.705624 18.324759 C 17.708749 21.812259 14.193124 24.146634 10.789999 26.284134 C 6.149373 29.237259 1.508748 32.10601 -3.216252 34.946635 C -5.719377 36.49351 -8.503753 38.06851 -11.428753 37.73101 C -12.666253 37.56226 -13.791253 37.11226 -14.831878 36.43726 C -16.575628 35.31226 -18.094378 33.62476 -19.444378 31.99351 C -23.831879 26.790384 -28.416254 21.137259 -28.950629 14.359133 C -29.260004 10.449758 -28.191254 6.596633 -27.122504 2.856008 C -26.081879 -0.772118 -25.069379 -4.372118 -24.056879 -7.972118 C -22.931879 -11.853368 -21.835003 -15.734618 -20.738128 -19.643994 C -19.275628 -24.790869 -17.813128 -29.965869 -16.350628 -35.112745 C -16.069378 -36.15337 -15.675628 -37.306495 -14.691253 -37.756495 C -13.988128 -38.06587 -13.200628 -37.95337 -12.441253 -37.812745 C -5.156877 -36.43462 2.155623 -35.08462 9.468124 -33.706495 C 13.743124 -32.918995 24.093124 -33.05962 26.736875 -28.981494 C 29.268125 -25.072119 26.2025 -16.662744 25.58375 -12.584618 Z M 25.58375 -12.584618 " stroke="#000000" stroke-width="3" stroke-opacity="1" stroke-miterlimit="4"/><path stroke-linecap="round" transform="matrix(0.138889, 0, 0, 0.138889, 95.192362, 64.801947)" fill-opacity="1" fill="#f4f4f4" fill-rule="nonzero" stroke-linejoin="round" d="M 12.396244 6.629107 C 9.443119 11.916607 6.489993 17.232233 3.508743 22.547858 C 2.468118 24.404108 1.343118 26.344733 -0.0068821 28.032233 C -1.750632 26.907233 -3.269382 25.219733 -4.619382 23.588483 C -9.006883 18.385358 -13.591258 12.732232 -14.125633 5.954107 C -14.435008 2.044732 -13.366258 -1.808394 -12.297508 -5.549019 C -11.256883 -9.177144 -10.244383 -12.777144 -9.231883 -16.377145 C -8.106883 -20.258395 -7.010008 -24.139645 -5.913132 -28.04902 C -3.663132 -27.26152 -1.722507 -25.714645 -0.513132 -23.21152 C 3.452493 -15.05527 -10.525633 0.160356 6.630618 -1.780269 C 9.302494 -2.089644 12.649369 -1.667769 13.661869 0.807232 C 14.449369 2.719732 13.408744 4.829107 12.396244 6.629107 Z M 12.396244 6.629107 " stroke="#000000" stroke-width="3" stroke-opacity="1" stroke-miterlimit="4"/><path stroke-linecap="round" transform="matrix(0.138889, 0, 0, 0.138889, 90.93902, 54.113612)" fill-opacity="1" fill="#f7f3eb" fill-rule="nonzero" stroke-linejoin="round" d="M 8.595307 -4.502385 C 7.020307 -6.21801 5.445307 -7.989885 3.448432 -9.171135 C 1.451556 -10.38051 -1.051569 -10.971135 -3.217194 -10.183635 C -5.889069 -9.19926 -7.548444 -6.38676 -7.970319 -3.57426 C -8.589069 0.503865 -6.957819 4.835116 -3.779694 7.478866 C -0.629694 10.122616 3.926557 10.966366 7.807807 9.644491 " stroke="#000000" stroke-width="3" stroke-opacity="1" stroke-miterlimit="4"/><path stroke-linecap="round" transform="matrix(0.138889, 0, 0, 0.138889, 97.229021, 52.348751)" fill-opacity="1" fill="#f7f3eb" fill-rule="nonzero" stroke-linejoin="round" d="M -43.386455 -4.423507 C -43.217705 2.129618 -41.78333 8.682744 -42.261455 15.235869 C -42.73958 22.15462 -45.355205 28.932745 -44.792705 35.851496 C -44.20208 43.192121 -39.92708 49.970246 -34.217705 54.610872 C -28.508329 59.279622 -21.448954 62.035872 -14.277078 63.667122 C -4.630203 65.888997 5.635423 66.198372 14.972923 62.963997 C 24.338549 59.729622 32.6073 52.642122 35.8698 43.276496 C 38.3448 36.104621 37.7823 28.257745 38.710425 20.720245 C 40.060425 9.807744 44.58855 -0.626632 44.897925 -11.623508 C 45.347925 -28.386009 34.941675 -44.92351 19.669799 -51.701635 C -12.927078 -66.186011 -44.286455 -37.301634 -43.386455 -4.423507 Z M -43.386455 -4.423507 " stroke="#000000" stroke-width="3" stroke-opacity="1" stroke-miterlimit="4"/><path stroke-linecap="round" transform="matrix(0.138889, 0, 0, 0.138889, 98.818882, 50.240555)" fill-opacity="1" fill="#f4f4f4" fill-rule="nonzero" stroke-linejoin="round" d="M 9.600926 -21.897623 C 14.241551 -17.594498 17.307177 -11.913247 20.007177 -6.203872 C 22.032177 -1.872622 23.804052 3.499254 20.991552 7.380504 C 19.332177 9.658629 16.519676 10.699254 14.044676 12.049254 C 9.235301 14.636754 5.269676 18.71488 2.822801 23.580505 C 1.107175 26.98363 -0.72095 31.399256 -4.517825 31.511756 C -8.2022 31.624256 -10.4522 27.293005 -10.480325 23.60863 C -10.50845 17.58988 -7.442825 10.643004 -11.492825 6.199254 C -13.43345 4.033629 -16.470951 3.302379 -18.777201 1.558629 C -23.699076 -2.238247 -23.783451 -10.056997 -20.549076 -15.344497 C -13.517825 -26.847623 -0.83345 -31.628874 9.600926 -21.897623 Z M 9.600926 -21.897623 " stroke="#000000" stroke-width="3" stroke-opacity="1" stroke-miterlimit="4"/><path stroke-linecap="round" transform="matrix(0.138889, 0, 0, 0.138889, 98.239023, 51.614865)" fill-opacity="1" fill="#000000" fill-rule="nonzero" stroke-linejoin="round" d="M -9.849089 -16.661401 C -4.392839 -10.333276 2.694662 -5.664525 9.979037 -1.558275 C 13.185287 0.241725 16.475912 1.985475 19.091538 4.54485 C 21.707163 7.104225 23.619663 10.647976 23.254038 14.304226 C 22.550913 21.251101 14.760287 24.738602 9.697787 29.547977 C 3.538412 35.369852 0.979036 44.735478 3.313412 52.863603 C 5.647787 61.019854 12.735287 67.601104 21.060288 69.288604 C 17.882163 61.863604 16.194662 53.679228 17.066538 45.663603 C 17.938413 37.619852 21.510288 29.744852 27.613413 24.429227 C 32.169664 20.463601 37.907164 18.044851 42.660289 14.304226 C 53.57279 5.7261 58.12904 -9.517651 55.48529 -23.130152 C 52.84154 -36.742652 43.729039 -48.583278 32.225914 -56.373904 C 18.894663 -65.402029 1.991537 -69.311405 -13.786589 -66.133279 C -29.564715 -62.983279 -43.936591 -52.548903 -51.024092 -38.120778 C -58.111592 -23.664527 -57.436592 -5.439525 -48.520967 7.947975 C -49.392842 -1.670775 -41.320966 -9.545776 -33.811591 -15.620776 C -28.35534 -20.036401 -17.83659 -27.742652 -18.45534 -35.673902 C -18.28659 -28.783277 -14.320965 -21.780151 -9.849089 -16.661401 Z M -9.849089 -16.661401 " stroke="#000000" stroke-width="3" stroke-opacity="1" stroke-miterlimit="4"/><path stroke-linecap="round" transform="matrix(0.138889, 0, 0, 0.138889, 103.29319, 55.920138)" fill-opacity="1" fill="#f7f3eb" fill-rule="nonzero" stroke-linejoin="round" d="M -8.270341 -3.587493 C -6.442216 -6.990619 -4.023466 -10.759369 -0.198465 -11.181244 C 4.16091 -11.659369 7.676535 -7.103119 8.126535 -2.715618 C 8.54841 1.559382 6.86091 6.087507 3.457785 8.703132 C 0.0546597 11.290633 -5.035966 11.656258 -8.551591 9.237507 " stroke="#000000" stroke-width="3" stroke-opacity="1" stroke-miterlimit="4"/><path stroke-linecap="round" transform="matrix(0.138889, 0.000098816, -0.000098816, 0.138889, 75.229905, 63.62408)" fill-opacity="1" fill="#6528f7" fill-rule="nonzero" stroke-linejoin="round" d="M 22.138564 39.703385 C 22.138564 39.703385 -8.373532 44.675095 -8.373532 44.675095 C -12.169966 45.296546 -15.799931 42.711628 -16.421402 38.887069 C -16.421402 38.887069 -27.91846 -31.642271 -27.91846 -31.642271 C -28.539932 -35.466829 -25.954993 -39.068669 -22.130435 -39.690141 C -22.130435 -39.690141 8.353516 -44.689956 8.353516 -44.689956 C 12.178075 -45.311427 15.779935 -42.698364 16.401407 -38.873805 C 16.401407 -38.873805 27.92659 31.655514 27.92659 31.655514 C 28.548061 35.480073 25.963123 39.081913 22.138564 39.703385 Z M 22.138564 39.703385 " stroke="#000000" stroke-width="3" stroke-opacity="1" stroke-miterlimit="4"/><path stroke-linecap="round" transform="matrix(0.138889, 0.000098816, -0.000098816, 0.138889, 72.995409, 60.772911)" fill-opacity="1" fill="#000000" fill-rule="nonzero" stroke-linejoin="round" d="M 4.569246 11.334916 C 4.569246 11.334916 -0.745777 12.182448 -0.745777 12.182448 C -1.561302 12.323653 -2.349202 11.761714 -2.462282 10.946169 C -2.462282 10.946169 -5.823764 -9.582695 -5.823764 -9.582695 C -5.964969 -10.39822 -5.40303 -11.18612 -4.55938 -11.327345 C -4.55938 -11.327345 0.727498 -12.202982 0.727498 -12.202982 C 1.571168 -12.316082 2.330943 -11.754123 2.472148 -10.938598 C 2.472148 -10.938598 5.83363 9.590266 5.83363 9.590266 C 5.94671 10.405811 5.384771 11.193711 4.569246 11.334916 Z M 4.569246 11.334916 " stroke="#000000" stroke-width="3" stroke-opacity="1" stroke-miterlimit="4"/><path stroke-linecap="round" transform="matrix(0.138889, 0.00000358858, -0.00000358858, 0.138889, 90.669334, 74.301634)" fill-opacity="1" fill="#f7f3eb" fill-rule="nonzero" stroke-linejoin="round" d="M 114.205552 -9.599714 C 113.305583 -8.390316 112.405614 -7.180917 111.505646 -5.971519 C 92.943781 18.666462 71.1475 41.729527 46.876157 62.34578 C 43.923096 64.848982 40.970035 67.324058 37.960722 69.742886 C 34.051428 72.892988 30.057758 75.986841 25.58594 78.208832 C 24.545336 79.024484 23.364103 79.699514 22.014116 80.205799 C 16.248547 82.371573 9.836059 82.849864 3.423538 82.062529 C -3.635859 81.218962 -10.723422 78.800395 -16.882886 75.369304 C -23.154851 71.910091 -28.667465 67.522733 -33.645715 62.685361 C -38.061451 58.410475 -42.083446 53.769953 -45.852317 49.101301 C -61.152807 30.17357 -73.697089 9.614517 -83.06327 -11.872742 C -85.904063 -18.369544 -88.632365 -25.231974 -94.313745 -30.238077 C -104.438975 -39.125316 -121.510873 -39.968625 -130.201756 -49.952777 C -135.9113 -56.449504 -135.995932 -66.405753 -129.639818 -71.693417 C -125.646154 -75.040396 -119.318049 -75.828059 -113.918009 -74.281324 C -111.302337 -72.453266 -108.658541 -70.709584 -105.902249 -69.078406 C -107.814815 -71.609606 -110.711735 -73.353282 -113.918009 -74.281324 C -113.918009 -74.281324 -112.961785 -75.293849 -118.024413 -80.215593 C -119.09319 -81.256191 -118.221356 -82.859338 -116.730726 -82.662502 C -93.161889 -79.34436 -85.371015 -69.753936 -80.701726 -48.91343 C -72.095346 -43.879277 -63.798343 -38.957617 -55.754463 -33.923449 C -38.147927 -22.898903 -22.00388 -11.48057 -7.378527 2.159678 C -0.037725 8.993864 6.909342 16.39056 13.462678 24.546641 C 19.312365 12.424614 27.552887 8.430651 36.04635 -2.707069 C 47.352217 -17.557362 61.554976 -31.760855 79.217277 -39.523812 C 92.885872 -45.542915 108.832715 -46.808952 120.532856 -41.381129 C 135.973668 -34.181528 122.980244 -21.553066 114.205552 -9.599714 Z M 114.205552 -9.599714 " stroke="#000000" stroke-width="3" stroke-opacity="1" stroke-miterlimit="4"/><path stroke-linecap="round" transform="matrix(0.138889, 0.00000358858, -0.00000358858, 0.138889, 101.265763, 77.597604)" fill-opacity="1" fill="#f4f4f4" fill-rule="nonzero" stroke-linejoin="round" d="M 35.210739 -29.700535 C 16.648874 -5.062553 -5.147406 18.000511 -29.41875 38.616765 C -30.121939 36.141783 -30.29076 33.413662 -30.09395 30.882407 C -29.672226 25.032395 -27.900504 19.126099 -28.913153 13.3605 C -29.785154 8.466772 -32.569642 4.107469 -33.891641 -0.673747 C -35.21364 -5.483088 -34.426297 -11.558109 -30.066983 -13.920722 C -21.854596 -18.336559 -12.432385 -5.343052 -3.685594 -8.633903 C 0.44874 -10.20901 2.445494 -14.905937 3.345382 -19.237211 C 4.24527 -23.568484 4.554525 -28.237242 7.113806 -31.865434 C 11.585516 -38.249925 21.401133 -38.615803 28.179357 -34.790978 C 31.104399 -33.159804 33.410693 -31.472363 35.210739 -29.700535 Z M 35.210739 -29.700535 " stroke="#000000" stroke-width="3" stroke-opacity="1" stroke-miterlimit="4"/><path stroke-linecap="round" transform="matrix(0.138889, 0.00000358858, -0.00000358858, 0.138889, 86.246408, 74.0736)" fill-opacity="1" fill="#f4f4f4" fill-rule="nonzero" stroke-linejoin="round" d="M 24.466586 3.800698 C 24.15738 10.353831 22.891923 16.878864 20.867084 23.094542 C 19.770295 26.41332 18.054765 30.09774 14.679788 30.997827 C 9.786071 32.291704 5.707802 26.751184 5.004548 21.744952 C 4.273165 16.598095 5.313655 11.366818 5.172896 6.191821 C 5.004012 0.9887 3.231989 -4.720629 -1.352451 -7.223636 C -5.51501 -9.501654 -10.774358 -8.460893 -15.246277 -10.120152 C -21.265086 -12.398122 -24.471514 -19.288665 -24.443556 -25.729291 C -24.415492 -28.119917 -24.246799 -30.313671 -23.90935 -32.28243 C -6.302814 -21.257884 9.841232 -9.83955 24.466586 3.800698 Z M 24.466586 3.800698 " stroke="#000000" stroke-width="3" stroke-opacity="1" stroke-miterlimit="4"/><path stroke-linecap="round" transform="matrix(0.138889, 0.00000358858, -0.00000358858, 0.138889, 90.004522, 82.834816)" fill-opacity="1" fill="#f4f4f4" fill-rule="nonzero" stroke-linejoin="round" d="M 28.767048 -15.180172 C 28.682736 -12.76142 27.389042 -10.567636 26.123471 -8.486353 C 20.80807 0.20441 15.464545 8.923298 10.149144 17.614061 C 9.530421 18.626577 8.911697 19.667218 8.208597 20.623486 C 1.1492 19.779919 -5.938363 17.361352 -12.097827 13.930261 C -18.369792 10.471047 -23.882406 6.08369 -28.860656 1.246318 C -23.348293 -4.06945 -12.548364 -6.854104 -7.120228 -6.432369 C -2.704594 -6.094983 1.767319 -4.632599 6.070417 -5.70146 C 12.004754 -7.164113 15.688984 -12.817334 19.682615 -17.429938 C 21.032574 -19.004973 22.776282 -20.636268 24.829411 -20.467571 C 27.248166 -20.298883 28.879485 -17.62705 28.767048 -15.180172 Z M 28.767048 -15.180172 " stroke="#000000" stroke-width="3" stroke-opacity="1" stroke-miterlimit="4"/><path stroke-linecap="round" transform="matrix(0.138889, 0, 0, 0.138889, 78.060553, 91.914306)" fill-opacity="1" fill="#6528f7" fill-rule="nonzero" stroke-linejoin="round" d="M 6.73589 -60.611134 C -7.354736 -79.679885 -22.345362 -99.508011 -43.832863 -109.520512 C -51.229738 -112.979887 -59.976614 -115.117387 -67.514115 -111.967387 C -74.826615 -108.901762 -79.41099 -101.533011 -82.251615 -94.108011 C -91.926616 -68.823634 -86.554741 -40.136133 -76.570365 -14.992381 C -54.942239 39.513873 -11.601611 85.076376 41.751518 109.376377 C 48.417143 112.413877 56.095268 115.142003 62.845269 112.301377 C 68.020269 110.135752 71.395269 105.185752 74.235895 100.348252 C 80.50777 89.604501 91.532771 71.77325 91.729646 59.004499 C 91.926521 46.966998 74.742145 31.301372 67.654644 21.682621 C 47.348393 -5.739255 27.042142 -33.189257 6.73589 -60.611134 Z M 6.73589 -60.611134 " stroke="#000000" stroke-width="3" stroke-opacity="1" stroke-miterlimit="4"/><path stroke-linecap="round" transform="matrix(0.138889, -0.0000017388, 0.0000017388, 0.138889, 86.238527, 108.793604)" fill-opacity="1" fill="#f4f4f4" fill-rule="nonzero" stroke-linejoin="round" d="M -33.977049 22.382505 C -36.452165 31.635599 -32.739816 43.673147 -23.402342 45.867014 C -15.077366 47.807743 -7.371034 41.282839 -1.60533 34.982911 C 7.254168 25.251771 15.354299 14.817497 22.554437 3.792586 C 29.051437 -6.135458 34.985948 -16.963509 35.857971 -28.804124 C 36.476821 -36.791617 32.84882 -46.719788 24.861329 -47.479263 C 21.373833 -47.816807 18.026938 -46.241849 14.876919 -44.723138 C 1.489337 -38.22643 -10.716943 -35.864083 -13.895259 -20.676622 C -17.35484 -4.251664 -29.729977 6.660682 -33.977049 22.382505 Z M -33.977049 22.382505 " stroke="#000000" stroke-width="3" stroke-opacity="1" stroke-miterlimit="4"/><path stroke-linecap="round" transform="matrix(0.138889, 0, 0, 0.138889, 90.097767, 91.692073)" fill-opacity="1" fill="#6528f7" fill-rule="nonzero" stroke-linejoin="round" d="M -24.441425 -70.907933 C -39.038301 -85.167309 -54.563302 -99.145435 -73.322679 -107.132936 C -81.394554 -110.564186 -91.43518 -112.589186 -98.41018 -107.245436 C -104.625806 -102.464185 -105.891431 -93.689185 -106.003931 -85.814184 C -106.538306 -51.586057 -94.444555 -17.836055 -75.375804 10.598322 C -56.869552 38.217074 -30.066426 55.3452 -8.972674 80.010826 C 9.252327 101.301453 31.246078 112.607703 60.88983 107.151453 C 83.164832 103.073328 103.808583 85.185827 105.861708 62.629575 C 106.536708 55.092075 104.821083 46.738949 98.999208 41.929574 C 92.333582 36.473324 83.305457 37.260824 75.627331 34.335823 C 67.752331 31.382698 63.70233 26.348323 58.41483 20.020197 C 45.561704 4.607696 32.483578 -10.636055 19.039827 -25.542306 C 4.977327 -41.095432 -9.450799 -56.282932 -24.441425 -70.907933 Z M -24.441425 -70.907933 " stroke="#000000" stroke-width="3" stroke-opacity="1" stroke-miterlimit="4"/><path stroke-linecap="round" transform="matrix(0.138889, 0, 0, 0.138889, 83.9243, 93.328048)" fill-opacity="1" fill="#6528f7" fill-rule="nonzero" stroke-linejoin="round" d="M 65.457542 105.047438 C 69.338792 98.859938 68.298167 90.872437 66.863792 83.728687 C 58.398166 41.569309 40.679415 1.913056 23.129414 -37.349446 C 10.529413 -65.474448 -2.970588 -94.808825 -27.411214 -113.596326 C -35.93309 -120.121327 -47.604966 -125.240077 -57.139341 -120.290077 C -67.545592 -114.890076 -69.345592 -100.91195 -69.008092 -89.183825 C -67.039342 -17.830695 -33.654965 51.272434 19.838789 98.297438 C 31.341914 108.394313 52.773166 125.241189 65.457542 105.047438 Z M 65.457542 105.047438 " stroke="#000000" stroke-width="3" stroke-opacity="1" stroke-miterlimit="4"/><path stroke-linecap="round" transform="matrix(0.138889, 0, 0, 0.138889, 89.100135, 111.463464)" fill-opacity="1" fill="#f4f4f4" fill-rule="nonzero" stroke-linejoin="round" d="M -33.964726 22.397434 C -36.467851 31.650559 -32.727226 43.68806 -23.389725 45.88181 C -15.09285 47.822435 -7.358474 41.297435 -1.620974 34.997434 C 7.266527 25.266184 15.366527 14.831808 22.566528 3.806807 C 29.063403 -6.121318 34.969653 -16.977569 35.869654 -28.818195 C 36.460279 -36.805695 32.860278 -46.705696 24.872778 -47.493196 C 21.385278 -47.830696 18.038402 -46.255696 14.888402 -44.736946 C 1.500901 -38.24007 -10.733475 -35.849445 -13.9116 -20.690069 C -17.34285 -4.265068 -29.717851 6.647432 -33.964726 22.397434 Z M -33.964726 22.397434 " stroke="#000000" stroke-width="3" stroke-opacity="1" stroke-miterlimit="4"/><path stroke-linecap="butt" transform="matrix(0.138889, 0, 0, 0.138889, 9.584723, 96.46444)" fill="none" stroke-linejoin="miter" d="M 7.714993 0.00291008 C 7.714993 4.27791 4.255618 7.737286 0.00874259 7.737286 C -4.266258 7.737286 -7.725633 4.27791 -7.725633 0.00291008 C -7.725633 -4.27209 -4.266258 -7.731465 0.00874259 -7.731465 C 4.255618 -7.731465 7.714993 -4.27209 7.714993 0.00291008 Z M 7.714993 0.00291008 " stroke="#000000" stroke-width="3" stroke-opacity="1" stroke-miterlimit="10"/><path stroke-linecap="butt" transform="matrix(0.138889, 0, 0, 0.138889, 9.584723, 101.587078)" fill="none" stroke-linejoin="miter" d="M 7.714993 -0.00821501 C 7.714993 4.266785 4.255618 7.72616 0.00874259 7.72616 C -4.266258 7.72616 -7.725633 4.266785 -7.725633 -0.00821501 C -7.725633 -4.25509 -4.266258 -7.714466 0.00874259 -7.714466 C 4.255618 -7.714466 7.714993 -4.25509 7.714993 -0.00821501 Z M 7.714993 -0.00821501 " stroke="#000000" stroke-width="3" stroke-opacity="1" stroke-miterlimit="10"/><path stroke-linecap="butt" transform="matrix(0.138889, 0, 0, 0.138889, 9.584723, 106.709717)" fill="none" stroke-linejoin="miter" d="M 7.714993 0.0087849 C 7.714993 4.25566 4.255618 7.715035 0.00874259 7.715035 C -4.266258 7.715035 -7.725633 4.25566 -7.725633 0.0087849 C -7.725633 -4.266215 -4.266258 -7.725591 0.00874259 -7.725591 C 4.255618 -7.725591 7.714993 -4.266215 7.714993 0.0087849 Z M 7.714993 0.0087849 " stroke="#000000" stroke-width="3" stroke-opacity="1" stroke-miterlimit="10"/><path stroke-linecap="butt" transform="matrix(0.138889, 0, 0, 0.138889, 9.584723, 111.832356)" fill="none" stroke-linejoin="miter" d="M 7.714993 -0.00234019 C 7.714993 4.27266 4.255618 7.732035 0.00874259 7.732035 C -4.266258 7.732035 -7.725633 4.27266 -7.725633 -0.00234019 C -7.725633 -4.27734 -4.266258 -7.736716 0.00874259 -7.736716 C 4.255618 -7.736716 7.714993 -4.27734 7.714993 -0.00234019 Z M 7.714993 -0.00234019 " stroke="#000000" stroke-width="3" stroke-opacity="1" stroke-miterlimit="10"/><path stroke-linecap="butt" transform="matrix(0.138889, 0, 0, 0.138889, 9.584723, 116.954856)" fill="none" stroke-linejoin="miter" d="M 7.714993 -0.012463 C 7.714993 4.262537 4.255618 7.721912 0.00874259 7.721912 C -4.266258 7.721912 -7.725633 4.262537 -7.725633 -0.012463 C -7.725633 -4.259338 -4.266258 -7.718714 0.00874259 -7.718714 C 4.255618 -7.718714 7.714993 -4.259338 7.714993 -0.012463 Z M 7.714993 -0.012463 " stroke="#000000" stroke-width="3" stroke-opacity="1" stroke-miterlimit="10"/><path stroke-linecap="butt" transform="matrix(0.138889, 0, 0, 0.138889, 14.548334, 96.46444)" fill="none" stroke-linejoin="miter" d="M 7.72387 0.00291008 C 7.72387 4.27791 4.264495 7.737286 -0.0105054 7.737286 C -4.257381 7.737286 -7.716756 4.27791 -7.716756 0.00291008 C -7.716756 -4.27209 -4.257381 -7.731465 -0.0105054 -7.731465 C 4.264495 -7.731465 7.72387 -4.27209 7.72387 0.00291008 Z M 7.72387 0.00291008 " stroke="#000000" stroke-width="3" stroke-opacity="1" stroke-miterlimit="10"/><path stroke-linecap="butt" transform="matrix(0.138889, 0, 0, 0.138889, 14.548334, 101.587078)" fill="none" stroke-linejoin="miter" d="M 7.72387 -0.00821501 C 7.72387 4.266785 4.264495 7.72616 -0.0105054 7.72616 C -4.257381 7.72616 -7.716756 4.266785 -7.716756 -0.00821501 C -7.716756 -4.25509 -4.257381 -7.714466 -0.0105054 -7.714466 C 4.264495 -7.714466 7.72387 -4.25509 7.72387 -0.00821501 Z M 7.72387 -0.00821501 " stroke="#000000" stroke-width="3" stroke-opacity="1" stroke-miterlimit="10"/><path stroke-linecap="butt" transform="matrix(0.138889, 0, 0, 0.138889, 14.548334, 106.709717)" fill="none" stroke-linejoin="miter" d="M 7.72387 0.0087849 C 7.72387 4.25566 4.264495 7.715035 -0.0105054 7.715035 C -4.257381 7.715035 -7.716756 4.25566 -7.716756 0.0087849 C -7.716756 -4.266215 -4.257381 -7.725591 -0.0105054 -7.725591 C 4.264495 -7.725591 7.72387 -4.266215 7.72387 0.0087849 Z M 7.72387 0.0087849 " stroke="#000000" stroke-width="3" stroke-opacity="1" stroke-miterlimit="10"/><path stroke-linecap="butt" transform="matrix(0.138889, 0, 0, 0.138889, 14.548334, 111.832356)" fill="none" stroke-linejoin="miter" d="M 7.72387 -0.00234019 C 7.72387 4.27266 4.264495 7.732035 -0.0105054 7.732035 C -4.257381 7.732035 -7.716756 4.27266 -7.716756 -0.00234019 C -7.716756 -4.27734 -4.257381 -7.736716 -0.0105054 -7.736716 C 4.264495 -7.736716 7.72387 -4.27734 7.72387 -0.00234019 Z M 7.72387 -0.00234019 " stroke="#000000" stroke-width="3" stroke-opacity="1" stroke-miterlimit="10"/><path stroke-linecap="butt" transform="matrix(0.138889, 0, 0, 0.138889, 14.548334, 116.954856)" fill="none" stroke-linejoin="miter" d="M 7.72387 -0.012463 C 7.72387 4.262537 4.264495 7.721912 -0.0105054 7.721912 C -4.257381 7.721912 -7.716756 4.262537 -7.716756 -0.012463 C -7.716756 -4.259338 -4.257381 -7.718714 -0.0105054 -7.718714 C 4.264495 -7.718714 7.72387 -4.259338 7.72387 -0.012463 Z M 7.72387 -0.012463 " stroke="#000000" stroke-width="3" stroke-opacity="1" stroke-miterlimit="10"/><path stroke-linecap="butt" transform="matrix(0.138889, 0, 0, 0.138889, 19.511944, 96.46444)" fill="none" stroke-linejoin="miter" d="M 7.732752 0.00291008 C 7.732752 4.27791 4.273377 7.737286 -0.00162318 7.737286 C -4.276623 7.737286 -7.735999 4.27791 -7.735999 0.00291008 C -7.735999 -4.27209 -4.276623 -7.731465 -0.00162318 -7.731465 C 4.273377 -7.731465 7.732752 -4.27209 7.732752 0.00291008 Z M 7.732752 0.00291008 " stroke="#000000" stroke-width="3" stroke-opacity="1" stroke-miterlimit="10"/><path stroke-linecap="butt" transform="matrix(0.138889, 0, 0, 0.138889, 19.511944, 101.587078)" fill="none" stroke-linejoin="miter" d="M 7.732752 -0.00821501 C 7.732752 4.266785 4.273377 7.72616 -0.00162318 7.72616 C -4.276623 7.72616 -7.735999 4.266785 -7.735999 -0.00821501 C -7.735999 -4.25509 -4.276623 -7.714466 -0.00162318 -7.714466 C 4.273377 -7.714466 7.732752 -4.25509 7.732752 -0.00821501 Z M 7.732752 -0.00821501 " stroke="#000000" stroke-width="3" stroke-opacity="1" stroke-miterlimit="10"/><path stroke-linecap="butt" transform="matrix(0.138889, 0, 0, 0.138889, 19.511944, 106.709717)" fill="none" stroke-linejoin="miter" d="M 7.732752 0.0087849 C 7.732752 4.25566 4.273377 7.715035 -0.00162318 7.715035 C -4.276623 7.715035 -7.735999 4.25566 -7.735999 0.0087849 C -7.735999 -4.266215 -4.276623 -7.725591 -0.00162318 -7.725591 C 4.273377 -7.725591 7.732752 -4.266215 7.732752 0.0087849 Z M 7.732752 0.0087849 " stroke="#000000" stroke-width="3" stroke-opacity="1" stroke-miterlimit="10"/><path stroke-linecap="butt" transform="matrix(0.138889, 0, 0, 0.138889, 19.511944, 111.832356)" fill="none" stroke-linejoin="miter" d="M 7.732752 -0.00234019 C 7.732752 4.27266 4.273377 7.732035 -0.00162318 7.732035 C -4.276623 7.732035 -7.735999 4.27266 -7.735999 -0.00234019 C -7.735999 -4.27734 -4.276623 -7.736716 -0.00162318 -7.736716 C 4.273377 -7.736716 7.732752 -4.27734 7.732752 -0.00234019 Z M 7.732752 -0.00234019 " stroke="#000000" stroke-width="3" stroke-opacity="1" stroke-miterlimit="10"/><path stroke-linecap="butt" transform="matrix(0.138889, 0, 0, 0.138889, 19.511944, 116.954856)" fill="none" stroke-linejoin="miter" d="M 7.732752 -0.012463 C 7.732752 4.262537 4.273377 7.721912 -0.00162318 7.721912 C -4.276623 7.721912 -7.735999 4.262537 -7.735999 -0.012463 C -7.735999 -4.259338 -4.276623 -7.718714 -0.00162318 -7.718714 C 4.273377 -7.718714 7.732752 -4.259338 7.732752 -0.012463 Z M 7.732752 -0.012463 " stroke="#000000" stroke-width="3" stroke-opacity="1" stroke-miterlimit="10"/><path stroke-linecap="butt" transform="matrix(0.138889, 0, 0, 0.138889, 24.475695, 96.46444)" fill="none" stroke-linejoin="miter" d="M 7.740622 0.00291008 C 7.740622 4.27791 4.281247 7.737286 0.00624642 7.737286 C -4.268754 7.737286 -7.728129 4.27791 -7.728129 0.00291008 C -7.728129 -4.27209 -4.268754 -7.731465 0.00624642 -7.731465 C 4.281247 -7.731465 7.740622 -4.27209 7.740622 0.00291008 Z M 7.740622 0.00291008 " stroke="#000000" stroke-width="3" stroke-opacity="1" stroke-miterlimit="10"/><path stroke-linecap="butt" transform="matrix(0.138889, 0, 0, 0.138889, 24.475695, 101.587078)" fill="none" stroke-linejoin="miter" d="M 7.740622 -0.00821501 C 7.740622 4.266785 4.281247 7.72616 0.00624642 7.72616 C -4.268754 7.72616 -7.728129 4.266785 -7.728129 -0.00821501 C -7.728129 -4.25509 -4.268754 -7.714466 0.00624642 -7.714466 C 4.281247 -7.714466 7.740622 -4.25509 7.740622 -0.00821501 Z M 7.740622 -0.00821501 " stroke="#000000" stroke-width="3" stroke-opacity="1" stroke-miterlimit="10"/><path stroke-linecap="butt" transform="matrix(0.138889, 0, 0, 0.138889, 24.475695, 106.709717)" fill="none" stroke-linejoin="miter" d="M 7.740622 0.0087849 C 7.740622 4.25566 4.281247 7.715035 0.00624642 7.715035 C -4.268754 7.715035 -7.728129 4.25566 -7.728129 0.0087849 C -7.728129 -4.266215 -4.268754 -7.725591 0.00624642 -7.725591 C 4.281247 -7.725591 7.740622 -4.266215 7.740622 0.0087849 Z M 7.740622 0.0087849 " stroke="#000000" stroke-width="3" stroke-opacity="1" stroke-miterlimit="10"/><path stroke-linecap="butt" transform="matrix(0.138889, 0, 0, 0.138889, 24.475695, 111.832356)" fill="none" stroke-linejoin="miter" d="M 7.740622 -0.00234019 C 7.740622 4.27266 4.281247 7.732035 0.00624642 7.732035 C -4.268754 7.732035 -7.728129 4.27266 -7.728129 -0.00234019 C -7.728129 -4.27734 -4.268754 -7.736716 0.00624642 -7.736716 C 4.281247 -7.736716 7.740622 -4.27734 7.740622 -0.00234019 Z M 7.740622 -0.00234019 " stroke="#000000" stroke-width="3" stroke-opacity="1" stroke-miterlimit="10"/><path stroke-linecap="butt" transform="matrix(0.138889, 0, 0, 0.138889, 24.475695, 116.954856)" fill="none" stroke-linejoin="miter" d="M 7.740622 -0.012463 C 7.740622 4.262537 4.281247 7.721912 0.00624642 7.721912 C -4.268754 7.721912 -7.728129 4.262537 -7.728129 -0.012463 C -7.728129 -4.259338 -4.268754 -7.718714 0.00624642 -7.718714 C 4.281247 -7.718714 7.740622 -4.259338 7.740622 -0.012463 Z M 7.740622 -0.012463 " stroke="#000000" stroke-width="3" stroke-opacity="1" stroke-miterlimit="10"/><path fill="#6528f7" d="M 131.914062 52.574219 C 131.914062 52.574219 125.09375 64.386719 125.09375 64.386719 C 125.09375 64.386719 138.730469 64.386719 138.730469 64.386719 C 138.730469 64.386719 131.914062 52.574219 131.914062 52.574219 Z M 131.914062 52.574219 " fill-opacity="1" fill-rule="nonzero"/><path stroke-linecap="butt" transform="matrix(0.138889, 0, 0, 0.138889, 136.024299, 60.95275)" fill="none" stroke-linejoin="miter" d="M -0.00620219 -42.522306 C -0.00620219 -42.522306 -49.08433 42.499575 -49.08433 42.499575 C -49.08433 42.499575 49.100051 42.499575 49.100051 42.499575 C 49.100051 42.499575 -0.00620219 -42.522306 -0.00620219 -42.522306 Z M -0.00620219 -42.522306 " stroke="#000000" stroke-width="3" stroke-opacity="1" stroke-miterlimit="10"/><path fill="#6528f7" d="M 140.933594 100.292969 C 140.933594 103.003906 138.738281 105.199219 136.03125 105.199219 C 133.320312 105.199219 131.125 103.003906 131.125 100.292969 C 131.125 97.585938 133.320312 95.390625 136.03125 95.390625 C 138.738281 95.390625 140.933594 97.585938 140.933594 100.292969 Z M 140.933594 100.292969 " fill-opacity="1" fill-rule="nonzero"/></svg>